# xmcd
#
# Track frame offsets:
#	150
#	15032
#	30627
#	46135
#	64290
#	76610
#	89622
#	101982
#	121537
#	134670
#	152240
#	166230
#
# Disc length: 2406 seconds
#
# Revision: 0
# Processed by: cddbd v1.4PL0 Copyright (c) Steve Scherf et al.
# Submitted via: audiograbber 1.81.01
#
DISCID=8c09640c
DTITLE=Rosanna fratello - I grandi successi originali cd1
DYEAR=1900
DGENRE=pop
TTITLE0=Uno non sono Maddalena
TTITLE1=Ciao anni verdi
TTITLE2=Calabrisella
TTITLE3=Vitti 'na crozza
TTITLE4=Io canto per amore
TTITLE5=Una rosa una candela
TTITLE6=Vola,vola,vola
TTITLE7=Amore di gioventù
TTITLE8=Ciuri ciuri
TTITLE9=Figlio dell'amore
TTITLE10=L'amore e un marinaio
TTITLE11=Sinno' me moro 
EXTD=
EXTT0=
EXTT1=
EXTT2=
EXTT3=
EXTT4=
EXTT5=
EXTT6=
EXTT7=
EXTT8=
EXTT9=
EXTT10=
EXTT11=
PLAYORDER=
